# xmcd
#
# Track frame offsets:
#	150
#	17600
#	29698
#	42415
#	56032
#	70942
#	96769
#	122823
#	143033
#	162291
#	180894
#	198802
#	220842
#	243010
#	264388
#	281845
#	303785
#
# Disc length: 4264 seconds
#
# Revision: 0
# Processed by: cddbd v1.5.2PL0 Copyright (c) Steve Scherf et al.
# Submitted via: EasyCDDAExtractor 10.0.2.1
#
DISCID=e910a611
DTITLE=Various Artist - Pop Greatest Hits Vol.2
DYEAR=2006
DGENRE=
TTITLE0=Abba - Dancing Queen
TTITLE1=The Mamas and The Papas - California Dreamin'
TTITLE2=Sarah Vaughan - A Lover's Concerto
TTITLE3=진추하 - One Summer Night
TTITLE4=Dan Fogelberg - Longer
TTITLE5=Air Supply - Making Love Out of Nothing At All
TTITLE6=Jennifer Rush - The Power of Love
TTITLE7=Toni Braxton - Un-Break My Heart
TTITLE8=Michael Bolton - How Am I Supposed To Live Without You
TTITLE9=Lionel Richie - Hello
TTITLE10=The Moody Blues - For My Lady
TTITLE11=Des\\'ree - I'm Kissing You
TTITLE12=Brian McKnight - One Last Cry
TTITLE13=K-Ci and Jojo - All My Life
TTITLE14=Laura Fygi - I Love You For Sentimental Reasons
TTITLE15=Alan Parsons Project - Old And Wise
TTITLE16=Secret Garden - Song From A Secret Garden
EXTD=
EXTT0=
EXTT1=
EXTT2=
EXTT3=
EXTT4=
EXTT5=
EXTT6=
EXTT7=
EXTT8=
EXTT9=
EXTT10=
EXTT11=
EXTT12=
EXTT13=
EXTT14=
EXTT15=
EXTT16=
PLAYORDER=
